<svg width="20" height="20" viewBox="0 0 20 20" fill="none" xmlns="http://www.w3.org/2000/svg">
<path d="M5.5 10.5001L8.375 10.5001L11.5 10.5001C12.4946 10.5001 13.5734 10.23 14.2766 9.52673C14.9799 8.82347 15.5 7.86964 15.5 6.87507L15.5 5.53125" stroke="black" stroke-width="3.5" stroke-miterlimit="10"/>
<path d="M4.5 5L4.5 14.7615" stroke="black" stroke-width="3.5" stroke-miterlimit="10"/>
<path d="M15.5 0.5C17.1569 0.5 18.5 1.84314 18.5 3.5C18.5 5.15685 17.1569 6.5 15.5 6.5C13.8431 6.5 12.5 5.15685 12.5 3.5C12.5 1.84315 13.8431 0.5 15.5 0.5Z" fill="white" stroke="black"/>
<path d="M4.5 13.5C6.15685 13.5 7.5 14.8431 7.5 16.5C7.5 18.1569 6.15685 19.5 4.5 19.5C2.84315 19.5 1.5 18.1569 1.5 16.5C1.5 14.8431 2.84314 13.5 4.5 13.5Z" fill="white" stroke="black"/>
<path d="M4.625 0.499999C6.28185 0.499999 7.625 1.84314 7.625 3.5C7.625 5.15685 6.28185 6.5 4.625 6.5C2.96815 6.5 1.625 5.15685 1.625 3.5C1.625 1.84315 2.96814 0.499999 4.625 0.499999Z" fill="white" stroke="black"/>
<path d="M4.5 10.5001L8.375 10.5001L11.5 10.5001C12.4946 10.5001 13.5734 10.23 14.2766 9.52673C14.9799 8.82347 15.5 7.86964 15.5 6.87507L15.5 5.53125" stroke="white" stroke-width="1.5" stroke-miterlimit="10"/>
<path d="M4.5 4.67607L4.5 14.4376" stroke="white" stroke-width="1.5" stroke-miterlimit="10"/>
</svg>
