<svg width="16" height="16" viewBox="0 0 16 16" fill="none" xmlns="http://www.w3.org/2000/svg">
<path d="M6.17 10.17L6.85 9.48998C6.57 9.48998 6.29 9.50998 6 9.50998C2.69 9.50998 0 8.84998 0 8.03998V10.49C0 11.3 2.69 11.96 6 11.96C6.66 11.96 7.29 11.93 7.89 11.89L6.18 10.18L6.17 10.17Z" fill="white"/>
<path d="M12 6.48998V4.03998C12 4.84998 9.31 5.49998 6 5.49998C2.69 5.49998 0 4.84998 0 4.03998V6.48998C0 7.29998 2.69 7.95998 6 7.95998C6.9 7.95998 7.75 7.90998 8.52 7.81998L10.17 6.16998L11.21 7.20998C11.71 6.99998 12 6.74998 12 6.48998Z" fill="white"/>
<path d="M6 4C9.31371 4 12 3.10457 12 2C12 0.89543 9.31371 0 6 0C2.68629 0 0 0.89543 0 2C0 3.10457 2.68629 4 6 4Z" fill="white"/>
<path fill-rule="evenodd" clip-rule="evenodd" d="M14.83 9L12.5 11.33L10.17 9L9 10.17L11.33 12.5L9 14.83L10.17 16L12.5 13.67L14.83 16L16 14.83L13.67 12.5L16 10.17L14.83 9Z" fill="white"/>
</svg>
